<?xml version="1.0" encoding="UTF-8"?>
<svg xmlns="http://www.w3.org/2000/svg" xmlns:xlink="http://www.w3.org/1999/xlink" width="47pt" height="10pt" viewBox="0 0 47 10" version="1.1">
<g id="surface1">
<path style="fill:none;stroke-width:0.885827;stroke-linecap:round;stroke-linejoin:miter;stroke:rgb(86.666667%,66.666667%,0%);stroke-opacity:1;stroke-miterlimit:4;" d="M 0.478723 14.598828 L 0 14.598828 L 0 8.357031 C 0 7.874609 0.0673205 7.399609 0.209441 6.939453 C 0.284242 6.701953 0.374003 6.471875 0.493684 6.249219 C 0.815326 5.618359 1.286569 5.113672 1.892453 4.727734 C 2.311336 4.467969 2.78258 4.297266 3.268783 4.223047 C 3.530585 4.178516 3.792387 4.15625 4.061669 4.163672 C 4.293551 4.163672 4.525432 4.178516 4.757314 4.215625 C 4.996676 4.252734 5.250997 4.312109 5.520279 4.386328 C 6.051363 4.542188 6.552527 4.831641 7.00881 5.262109 C 7.412733 5.633203 7.719415 6.152734 7.936336 6.820703 C 7.966257 6.917188 7.996177 7.021094 8.018617 7.117578 L 8.041057 7.117578 C 8.115858 6.842969 8.213098 6.568359 8.340259 6.301172 C 8.4749 6.011719 8.631981 5.751953 8.818983 5.536719 C 8.901263 5.440234 8.983544 5.34375 9.080785 5.262109 C 9.312666 5.039453 9.574468 4.853906 9.85123 4.698047 C 10.083112 4.564453 10.329953 4.460547 10.576795 4.386328 C 11.077959 4.245313 11.534242 4.171094 11.945645 4.163672 C 11.975565 4.163672 12.005485 4.163672 12.042886 4.163672 C 12.409408 4.15625 12.768451 4.200781 13.127493 4.282422 C 13.508976 4.371484 13.875499 4.519922 14.212101 4.727734 C 14.817985 5.113672 15.281749 5.618359 15.603391 6.249219 C 15.872673 6.798438 16.029754 7.392188 16.067154 8.000781 C 16.074634 8.119531 16.082114 8.238281 16.082114 8.357031 L 16.082114 14.598828 L 15.603391 14.598828 L 15.603391 8.357031 C 15.603391 7.629688 15.44631 6.976563 15.132148 6.419922 C 14.817985 5.863281 14.391622 5.417969 13.860539 5.091406 C 13.329455 4.764844 12.71609 4.601562 12.020445 4.601562 C 11.579122 4.594141 11.145279 4.668359 10.733876 4.809375 C 10.516955 4.883594 10.307513 4.980078 10.113032 5.098828 C 9.544548 5.432813 9.095745 5.885547 8.766622 6.449609 C 8.44498 7.013672 8.280419 7.651953 8.280419 8.357031 L 8.280419 14.598828 L 7.779255 14.598828 L 7.779255 8.357031 C 7.786735 7.919141 7.711935 7.488672 7.569814 7.073047 C 7.495013 6.857813 7.397773 6.65 7.278092 6.449609 C 6.948969 5.885547 6.500166 5.432813 5.939162 5.098828 C 5.445479 4.809375 4.876995 4.638672 4.301031 4.608984 C 4.21127 4.601562 4.128989 4.601562 4.039229 4.601562 C 3.635306 4.594141 3.231383 4.660938 2.8499 4.794531 C 2.625499 4.86875 2.408577 4.965234 2.206616 5.091406 C 1.668052 5.417969 1.249169 5.863281 0.942487 6.419922 C 0.718085 6.828125 0.575964 7.273438 0.523604 7.733594 C 0.493684 7.941406 0.478723 8.149219 0.478723 8.357031 Z M 0.478723 14.598828 " transform="matrix(0.522222,0,0,0.526316,0,0)"/>
<path style="fill:none;stroke-width:0.885827;stroke-linecap:round;stroke-linejoin:miter;stroke:rgb(86.666667%,66.666667%,0%);stroke-opacity:1;stroke-miterlimit:4;" d="M 19.979222 14.598828 L 19.478059 14.598828 L 19.478059 4.401172 L 19.979222 4.401172 Z M 19.440658 2.055859 C 19.522939 2.122656 19.63514 2.159766 19.73986 2.159766 C 19.74734 2.159766 19.75482 2.159766 19.762301 2.159766 C 19.896941 2.159766 20.024102 2.100391 20.106383 1.996484 C 20.121343 1.989063 20.128823 1.974219 20.143783 1.959375 C 20.218584 1.870313 20.263464 1.758984 20.263464 1.640234 C 20.263464 1.640234 20.263464 1.632813 20.263464 1.632813 C 20.263464 1.499219 20.203624 1.365625 20.106383 1.269141 C 20.061503 1.224609 20.009142 1.1875 19.949302 1.157813 C 19.881981 1.135547 19.814661 1.120703 19.73986 1.120703 C 19.66506 1.120703 19.597739 1.135547 19.530419 1.165234 C 19.478059 1.194922 19.425698 1.224609 19.380818 1.269141 C 19.373338 1.276563 19.373338 1.276563 19.365858 1.283984 C 19.268617 1.380469 19.216257 1.506641 19.223737 1.640234 C 19.216257 1.714453 19.238697 1.796094 19.276097 1.862891 C 19.306017 1.914844 19.335938 1.959375 19.380818 1.996484 C 19.395778 2.01875 19.418218 2.041016 19.440658 2.055859 Z M 19.440658 2.055859 " transform="matrix(0.522222,0,0,0.526316,0,0)"/>
<path style="fill:none;stroke-width:0.885827;stroke-linecap:round;stroke-linejoin:miter;stroke:rgb(86.666667%,66.666667%,0%);stroke-opacity:1;stroke-miterlimit:4;" d="M 28.723404 14.598828 L 26.77859 14.598828 C 26.479388 14.598828 26.187666 14.569141 25.895944 14.502344 C 25.424701 14.398438 24.990858 14.160938 24.646775 13.819531 C 24.302693 13.463281 24.063331 13.010547 23.96609 12.520703 C 23.90625 12.246094 23.87633 11.971484 23.87633 11.696875 L 23.87633 1.840625 L 24.377493 1.840625 L 24.377493 11.496484 C 24.377493 11.75625 24.399934 12.008594 24.444814 12.260938 C 24.497174 12.542969 24.579455 12.787891 24.699136 13.010547 C 24.781416 13.173828 24.886137 13.322266 25.013298 13.463281 C 25.24518 13.708203 25.536902 13.89375 25.866024 13.990234 C 26.075465 14.064453 26.314827 14.108984 26.576629 14.123828 C 26.68883 14.138672 26.808511 14.138672 26.920711 14.138672 L 28.723404 14.138672 Z M 28.798205 4.861328 L 22.081117 4.861328 L 22.081117 4.401172 L 28.798205 4.401172 Z M 28.798205 4.861328 " transform="matrix(0.522222,0,0,0.526316,0,0)"/>
<path style="fill:none;stroke-width:0.885827;stroke-linecap:round;stroke-linejoin:miter;stroke:rgb(86.666667%,66.666667%,0%);stroke-opacity:1;stroke-miterlimit:4;" d="M 31.678025 14.598828 L 31.199302 14.598828 L 31.199302 8.357031 C 31.199302 7.874609 31.266622 7.399609 31.408743 6.939453 C 31.483544 6.701953 31.573305 6.471875 31.692985 6.249219 C 32.014628 5.618359 32.485871 5.113672 33.091755 4.727734 C 33.510638 4.467969 33.981882 4.297266 34.468085 4.223047 C 34.729887 4.178516 34.999169 4.15625 35.260971 4.163672 C 35.492852 4.163672 35.724734 4.178516 35.956616 4.215625 C 36.195977 4.252734 36.450299 4.312109 36.719581 4.386328 C 37.250665 4.542188 37.751828 4.831641 38.208112 5.262109 C 38.612035 5.633203 38.918717 6.152734 39.135638 6.820703 C 39.165559 6.917188 39.195479 7.021094 39.217919 7.117578 L 39.240359 7.117578 C 39.31516 6.842969 39.4124 6.568359 39.539561 6.301172 C 39.674202 6.011719 39.831283 5.751953 40.018285 5.536719 C 40.100565 5.440234 40.182846 5.34375 40.280086 5.262109 C 40.511968 5.039453 40.77377 4.853906 41.050532 4.698047 C 41.282414 4.564453 41.529255 4.460547 41.783577 4.386328 C 42.277261 4.245313 42.733544 4.171094 43.144947 4.163672 C 43.174867 4.163672 43.212267 4.163672 43.242188 4.163672 C 43.60871 4.15625 43.967753 4.200781 44.326795 4.282422 C 44.708278 4.371484 45.074801 4.519922 45.411403 4.727734 C 46.017287 5.113672 46.481051 5.618359 46.802693 6.249219 C 47.071975 6.798438 47.229056 7.392188 47.266456 8.000781 C 47.273936 8.119531 47.281416 8.238281 47.281416 8.357031 L 47.281416 14.598828 L 46.802693 14.598828 L 46.802693 8.357031 C 46.802693 7.629688 46.645612 6.976563 46.331449 6.419922 C 46.017287 5.863281 45.590924 5.417969 45.05984 5.091406 C 44.528757 4.764844 43.915392 4.601562 43.219747 4.601562 C 42.785904 4.594141 42.344581 4.668359 41.933178 4.809375 C 41.716257 4.883594 41.506815 4.980078 41.312334 5.098828 C 40.74385 5.432813 40.295047 5.885547 39.973404 6.449609 C 39.644282 7.013672 39.479721 7.651953 39.479721 8.357031 L 39.479721 14.598828 L 38.978557 14.598828 L 38.978557 8.357031 C 38.986037 7.919141 38.911237 7.488672 38.769116 7.073047 C 38.694315 6.857813 38.597074 6.65 38.477394 6.449609 C 38.148271 5.885547 37.699468 5.432813 37.138464 5.098828 C 36.644781 4.809375 36.076297 4.638672 35.500332 4.608984 C 35.418052 4.601562 35.328291 4.601562 35.238531 4.601562 C 34.834608 4.594141 34.430685 4.660938 34.049202 4.794531 C 33.824801 4.86875 33.607879 4.965234 33.413398 5.091406 C 32.867354 5.417969 32.448471 5.863281 32.141789 6.419922 C 31.917387 6.828125 31.775266 7.273438 31.722906 7.733594 C 31.692985 7.941406 31.678025 8.149219 31.678025 8.357031 Z M 31.678025 14.598828 " transform="matrix(0.522222,0,0,0.526316,0,0)"/>
<path style="fill:none;stroke-width:0.885827;stroke-linecap:round;stroke-linejoin:miter;stroke:rgb(86.666667%,66.666667%,0%);stroke-opacity:1;stroke-miterlimit:4;" d="M 50.67736 9.336719 L 50.67736 19 L 51.178524 19 L 51.178524 11.941797 L 51.238364 11.941797 C 51.477726 12.498438 51.829289 12.995703 52.278092 13.433594 C 52.734375 13.864063 53.250499 14.205469 53.841423 14.457813 C 54.424867 14.710156 55.045711 14.836328 55.696476 14.836328 C 56.564162 14.836328 57.386968 14.635938 58.149934 14.220313 C 58.875499 13.826953 59.488863 13.255469 59.930186 12.557813 C 59.960106 12.505859 59.990027 12.461328 60.019947 12.409375 C 60.49867 11.615234 60.738032 10.642969 60.738032 9.5 C 60.738032 9.106641 60.708112 8.713281 60.648271 8.327344 C 60.580951 7.919141 60.46875 7.525781 60.311669 7.147266 C 60.147108 6.753906 59.930186 6.382813 59.675864 6.041406 C 59.518783 5.841016 59.339262 5.648047 59.152261 5.469922 C 58.666057 5.024609 58.120013 4.690625 57.521609 4.467969 C 56.923205 4.252734 56.30984 4.141406 55.681516 4.141406 C 54.85123 4.141406 54.058344 4.334375 53.287899 4.720313 C 52.524934 5.10625 51.896609 5.685156 51.410406 6.457031 C 50.939162 7.214063 50.69232 8.141797 50.67736 9.240234 C 50.67736 9.277344 50.67736 9.307031 50.67736 9.336719 Z M 55.659076 4.601562 C 56.422041 4.601562 57.147606 4.779688 57.850731 5.150781 C 58.486536 5.484766 59.03258 5.974609 59.429023 6.575781 C 59.481383 6.642578 59.526263 6.716797 59.571144 6.791016 C 59.825465 7.206641 60.004987 7.666797 60.102227 8.141797 C 60.184508 8.505469 60.229388 8.898828 60.236868 9.314453 C 60.236868 9.38125 60.236868 9.440625 60.236868 9.5 C 60.244348 9.923047 60.199468 10.346094 60.117187 10.761719 C 60.012467 11.244141 59.832945 11.704297 59.578624 12.127344 C 59.309342 12.580078 58.972739 12.988281 58.568816 13.329688 C 58.359375 13.507813 58.127493 13.663672 57.888132 13.797266 C 57.199967 14.183203 56.481882 14.383594 55.718916 14.383594 C 54.963431 14.383594 54.230386 14.198047 53.542221 13.826953 C 52.928856 13.500391 52.397773 13.032813 52.00881 12.453906 C 51.948969 12.364844 51.896609 12.283203 51.836769 12.186719 C 51.597407 11.785938 51.425366 11.340625 51.328125 10.880469 C 51.245844 10.516797 51.193484 10.123438 51.186004 9.700391 C 51.178524 9.61875 51.178524 9.537109 51.178524 9.462891 C 51.178524 9.062109 51.208444 8.66875 51.275765 8.275391 C 51.380485 7.703906 51.567487 7.199219 51.829289 6.761328 C 52.07613 6.338281 52.390293 5.967188 52.756815 5.648047 C 52.988697 5.447656 53.243019 5.276953 53.512301 5.143359 C 54.192985 4.779688 54.91107 4.601562 55.659076 4.601562 Z M 55.659076 4.601562 " transform="matrix(0.522222,0,0,0.526316,0,0)"/>
<path style="fill:none;stroke-width:0.885827;stroke-linecap:round;stroke-linejoin:miter;stroke:rgb(86.666667%,66.666667%,0%);stroke-opacity:1;stroke-miterlimit:4;" d="M 64.141456 14.598828 L 63.640293 14.598828 L 63.640293 0 L 64.141456 0 Z M 64.141456 14.598828 " transform="matrix(0.522222,0,0,0.526316,0,0)"/>
<path style="fill:none;stroke-width:0.885827;stroke-linecap:round;stroke-linejoin:miter;stroke:rgb(86.666667%,66.666667%,0%);stroke-opacity:1;stroke-miterlimit:4;" d="M 77.27643 9.321875 L 77.27643 14.598828 L 76.782746 14.598828 L 76.782746 11.941797 L 76.722906 11.941797 C 76.625665 12.149609 76.513464 12.35 76.386303 12.535547 C 76.229222 12.773047 76.042221 13.017969 75.817819 13.262891 C 75.511137 13.596875 75.159574 13.886328 74.770612 14.123828 C 74.606051 14.220313 74.441489 14.316797 74.269448 14.398438 C 73.858045 14.598828 73.416722 14.739844 72.960439 14.799219 C 72.683677 14.84375 72.399435 14.858594 72.122673 14.858594 C 71.67387 14.866016 71.232547 14.814063 70.798703 14.725 C 70.29006 14.621094 69.803856 14.420703 69.362533 14.153516 C 68.599568 13.678516 68.023604 13.032813 67.627161 12.216406 C 67.327959 11.592969 67.140957 10.917578 67.073637 10.219922 C 67.051197 9.975 67.036237 9.730078 67.043717 9.477734 C 67.036237 8.943359 67.103557 8.401563 67.238198 7.882031 C 67.335439 7.496094 67.48504 7.117578 67.672041 6.761328 C 68.090924 5.959766 68.689328 5.328906 69.467254 4.861328 C 69.990858 4.557031 70.559342 4.349219 71.150266 4.252734 C 71.516789 4.185938 71.890791 4.15625 72.257314 4.163672 C 72.758477 4.15625 73.252161 4.223047 73.730884 4.349219 C 74.127327 4.460547 74.51629 4.623828 74.867852 4.839063 C 75.623338 5.291797 76.214262 5.907813 76.640625 6.679688 C 77.066988 7.451563 77.27643 8.334766 77.27643 9.321875 Z M 72.122673 14.420703 C 72.661237 14.420703 73.19232 14.331641 73.700964 14.153516 C 73.977726 14.057031 74.239528 13.930859 74.48637 13.782422 C 75.189495 13.351953 75.743019 12.765625 76.161902 12.008594 C 76.483544 11.414844 76.678025 10.754297 76.737866 10.078906 C 76.752826 9.871094 76.760306 9.655859 76.760306 9.440625 C 76.760306 8.505469 76.573305 7.674219 76.199302 6.946875 C 75.825299 6.226953 75.301695 5.648047 74.621011 5.232422 C 74.119847 4.928125 73.558843 4.727734 72.975399 4.653516 C 72.728557 4.616406 72.474235 4.601562 72.219914 4.601562 C 71.808511 4.594141 71.404588 4.638672 71.000665 4.727734 C 70.551862 4.831641 70.118019 5.002344 69.721576 5.247266 C 69.025931 5.685156 68.494847 6.278906 68.120844 7.028516 C 67.851562 7.577734 67.679521 8.164062 67.612201 8.772656 C 67.574801 9.047266 67.55984 9.321875 67.55984 9.596484 C 67.55984 10.182813 67.642121 10.754297 67.814162 11.310938 C 67.888963 11.555859 67.978723 11.793359 68.090924 12.023438 C 68.442487 12.750781 68.95861 13.337109 69.639295 13.767578 C 70.080618 14.049609 70.574302 14.235156 71.090426 14.331641 C 71.427028 14.391016 71.77111 14.420703 72.122673 14.420703 Z M 72.122673 14.420703 " transform="matrix(0.522222,0,0,0.526316,0,0)"/>
<path style="fill:none;stroke-width:0.885827;stroke-linecap:round;stroke-linejoin:miter;stroke:rgb(86.666667%,66.666667%,0%);stroke-opacity:1;stroke-miterlimit:4;" d="M 85.377327 18.658594 L 84.883644 18.658594 L 84.883644 14.858594 C 84.158078 14.821484 83.477394 14.628516 82.841589 14.279688 C 82.198305 13.930859 81.659741 13.41875 81.285738 12.787891 C 81.285738 12.787891 81.278258 12.780469 81.278258 12.780469 C 81.038896 12.387109 80.874335 11.949219 80.784574 11.496484 C 80.717254 11.155078 80.679854 10.783984 80.679854 10.390625 C 80.679854 10.383203 80.679854 10.383203 80.679854 10.383203 L 80.679854 4.401172 L 81.203457 4.401172 L 81.203457 10.301563 C 81.203457 11.207031 81.390459 11.964063 81.771941 12.580078 C 82.153424 13.196094 82.639628 13.648828 83.238032 13.953125 C 83.836436 14.25 84.464761 14.398438 85.123005 14.398438 C 85.80369 14.398438 86.446975 14.25 87.052859 13.938281 C 87.643783 13.641406 88.144947 13.188672 88.503989 12.624609 C 88.518949 12.609766 88.52643 12.5875 88.54139 12.572656 C 88.915392 11.986328 89.109874 11.258984 89.117354 10.390625 C 89.117354 10.360938 89.117354 10.33125 89.117354 10.301563 L 89.117354 4.401172 L 89.603557 4.401172 L 89.603557 10.383203 C 89.603557 11.340625 89.401596 12.149609 88.997673 12.802734 C 88.60123 13.455859 88.077626 13.953125 87.426862 14.287109 C 86.783577 14.628516 86.102892 14.821484 85.377327 14.858594 Z M 85.377327 18.658594 " transform="matrix(0.522222,0,0,0.526316,0,0)"/>
</g>
</svg>
