<svg width="89.6" height="19" viewBox="0 0 89.6 19" xmlns="http://www.w3.org/2000/svg"><g id="svgGroup" stroke-linecap="round" fill-rule="evenodd" font-size="9pt" stroke="#000" stroke-width="0.25mm" fill="none" style="stroke:#da0;stroke-width:0.25mm;fill:none"><path d="M 0.48 14.6 L 0 14.6 L 0 8.36 A 4.749 4.749 0 0 1 0.209 6.936 A 4.274 4.274 0 0 1 0.49 6.25 Q 0.98 5.3 1.89 4.73 A 3.692 3.692 0 0 1 3.271 4.221 A 4.893 4.893 0 0 1 4.06 4.16 A 4.471 4.471 0 0 1 4.754 4.217 Q 5.12 4.275 5.52 4.39 Q 6.32 4.62 7.01 5.26 Q 7.613 5.819 7.933 6.82 A 5.872 5.872 0 0 1 8.02 7.12 L 8.04 7.12 A 5.236 5.236 0 0 1 8.338 6.302 Q 8.544 5.864 8.817 5.536 A 2.811 2.811 0 0 1 9.08 5.26 A 4.165 4.165 0 0 1 9.852 4.696 A 3.416 3.416 0 0 1 10.58 4.39 Q 11.324 4.176 11.947 4.161 A 3.874 3.874 0 0 1 12.04 4.16 A 4.666 4.666 0 0 1 13.127 4.281 A 3.602 3.602 0 0 1 14.21 4.73 Q 15.12 5.3 15.6 6.25 A 4.508 4.508 0 0 1 16.068 8.003 A 5.382 5.382 0 0 1 16.08 8.36 L 16.08 14.6 L 15.6 14.6 L 15.6 8.36 Q 15.6 7.26 15.13 6.42 Q 14.66 5.58 13.86 5.09 Q 13.06 4.6 12.02 4.6 A 3.857 3.857 0 0 0 10.734 4.81 A 3.538 3.538 0 0 0 10.11 5.1 Q 9.26 5.6 8.77 6.45 Q 8.28 7.3 8.28 8.36 L 8.28 14.6 L 7.78 14.6 L 7.78 8.36 A 3.857 3.857 0 0 0 7.57 7.074 A 3.538 3.538 0 0 0 7.28 6.45 Q 6.78 5.6 5.94 5.1 A 3.577 3.577 0 0 0 4.302 4.608 A 4.328 4.328 0 0 0 4.04 4.6 A 3.637 3.637 0 0 0 2.847 4.791 A 3.312 3.312 0 0 0 2.21 5.09 Q 1.4 5.58 0.94 6.42 A 3.728 3.728 0 0 0 0.521 7.73 A 4.76 4.76 0 0 0 0.48 8.36 L 0.48 14.6 Z" id="0" vector-effect="non-scaling-stroke"/><path d="M 19.98 14.6 L 19.48 14.6 L 19.48 4.4 L 19.98 4.4 L 19.98 14.6 Z M 19.442 2.054 A 0.476 0.476 0 0 0 19.74 2.16 A 0.592 0.592 0 0 0 19.761 2.16 A 0.485 0.485 0 0 0 20.11 2 A 0.664 0.664 0 0 0 20.143 1.962 A 0.502 0.502 0 0 0 20.26 1.64 A 0.644 0.644 0 0 0 20.26 1.633 A 0.502 0.502 0 0 0 20.11 1.27 A 0.504 0.504 0 0 0 19.948 1.16 A 0.532 0.532 0 0 0 19.74 1.12 A 0.488 0.488 0 0 0 19.533 1.165 A 0.578 0.578 0 0 0 19.38 1.27 A 0.587 0.587 0 0 0 19.365 1.284 A 0.485 0.485 0 0 0 19.22 1.64 A 0.464 0.464 0 0 0 19.277 1.863 A 0.59 0.59 0 0 0 19.38 2 A 0.654 0.654 0 0 0 19.442 2.054 Z" id="1" vector-effect="non-scaling-stroke"/><path d="M 28.72 14.6 L 26.78 14.6 A 3.814 3.814 0 0 1 25.897 14.504 A 2.534 2.534 0 0 1 24.65 13.82 A 2.596 2.596 0 0 1 23.963 12.519 A 3.834 3.834 0 0 1 23.88 11.7 L 23.88 1.84 L 24.38 1.84 L 24.38 11.5 A 4.164 4.164 0 0 0 24.445 12.258 Q 24.523 12.68 24.696 13.012 A 2.052 2.052 0 0 0 25.01 13.46 A 1.972 1.972 0 0 0 25.863 13.991 Q 26.184 14.096 26.576 14.127 A 4.336 4.336 0 0 0 26.92 14.14 L 28.72 14.14 L 28.72 14.6 Z M 28.8 4.86 L 22.08 4.86 L 22.08 4.4 L 28.8 4.4 L 28.8 4.86 Z" id="2" vector-effect="non-scaling-stroke"/><path d="M 31.68 14.6 L 31.2 14.6 L 31.2 8.36 A 4.749 4.749 0 0 1 31.409 6.936 A 4.274 4.274 0 0 1 31.69 6.25 Q 32.18 5.3 33.09 4.73 A 3.692 3.692 0 0 1 34.471 4.221 A 4.893 4.893 0 0 1 35.26 4.16 A 4.471 4.471 0 0 1 35.954 4.217 Q 36.32 4.275 36.72 4.39 Q 37.52 4.62 38.21 5.26 Q 38.813 5.819 39.133 6.82 A 5.872 5.872 0 0 1 39.22 7.12 L 39.24 7.12 A 5.236 5.236 0 0 1 39.538 6.302 Q 39.744 5.864 40.017 5.536 A 2.811 2.811 0 0 1 40.28 5.26 A 4.165 4.165 0 0 1 41.052 4.696 A 3.416 3.416 0 0 1 41.78 4.39 Q 42.524 4.176 43.147 4.161 A 3.874 3.874 0 0 1 43.24 4.16 A 4.666 4.666 0 0 1 44.327 4.281 A 3.602 3.602 0 0 1 45.41 4.73 Q 46.32 5.3 46.8 6.25 A 4.508 4.508 0 0 1 47.268 8.003 A 5.382 5.382 0 0 1 47.28 8.36 L 47.28 14.6 L 46.8 14.6 L 46.8 8.36 Q 46.8 7.26 46.33 6.42 Q 45.86 5.58 45.06 5.09 Q 44.26 4.6 43.22 4.6 A 3.857 3.857 0 0 0 41.934 4.81 A 3.538 3.538 0 0 0 41.31 5.1 Q 40.46 5.6 39.97 6.45 Q 39.48 7.3 39.48 8.36 L 39.48 14.6 L 38.98 14.6 L 38.98 8.36 A 3.857 3.857 0 0 0 38.77 7.074 A 3.538 3.538 0 0 0 38.48 6.45 Q 37.98 5.6 37.14 5.1 A 3.577 3.577 0 0 0 35.502 4.608 A 4.328 4.328 0 0 0 35.24 4.6 A 3.637 3.637 0 0 0 34.047 4.791 A 3.312 3.312 0 0 0 33.41 5.09 Q 32.6 5.58 32.14 6.42 A 3.728 3.728 0 0 0 31.721 7.73 A 4.76 4.76 0 0 0 31.68 8.36 L 31.68 14.6 Z" id="3" vector-effect="non-scaling-stroke"/><path d="M 50.68 9.34 L 50.68 19 L 51.18 19 L 51.18 11.94 L 51.24 11.94 Q 51.6 12.78 52.28 13.43 Q 52.96 14.08 53.84 14.46 Q 54.72 14.84 55.7 14.84 Q 57 14.84 58.15 14.22 A 4.828 4.828 0 0 0 59.928 12.557 A 5.734 5.734 0 0 0 60.02 12.41 Q 60.74 11.22 60.74 9.5 A 7.071 7.071 0 0 0 60.647 8.326 A 5.193 5.193 0 0 0 60.31 7.15 A 5.108 5.108 0 0 0 59.675 6.045 A 4.415 4.415 0 0 0 59.15 5.47 Q 58.42 4.8 57.52 4.47 Q 56.62 4.14 55.68 4.14 Q 54.44 4.14 53.29 4.72 Q 52.14 5.3 51.41 6.46 Q 50.701 7.587 50.681 9.243 A 7.995 7.995 0 0 0 50.68 9.34 Z M 55.66 4.6 Q 56.8 4.6 57.85 5.15 A 4.341 4.341 0 0 1 59.43 6.574 A 5.237 5.237 0 0 1 59.57 6.79 A 4.338 4.338 0 0 1 60.103 8.141 Q 60.223 8.688 60.238 9.318 A 7.62 7.62 0 0 1 60.24 9.5 A 5.996 5.996 0 0 1 60.114 10.761 A 4.41 4.41 0 0 1 59.58 12.13 A 4.815 4.815 0 0 1 58.569 13.329 A 4.39 4.39 0 0 1 57.89 13.8 Q 56.86 14.38 55.72 14.38 Q 54.58 14.38 53.54 13.83 A 4.277 4.277 0 0 1 52.011 12.454 A 5.171 5.171 0 0 1 51.84 12.19 A 4.348 4.348 0 0 1 51.326 10.882 Q 51.203 10.334 51.184 9.698 A 7.855 7.855 0 0 1 51.18 9.46 A 6.675 6.675 0 0 1 51.279 8.277 Q 51.434 7.418 51.83 6.76 A 4.495 4.495 0 0 1 52.76 5.647 A 4.042 4.042 0 0 1 53.51 5.14 Q 54.54 4.6 55.66 4.6 Z" id="4" vector-effect="non-scaling-stroke"/><path d="M 64.14 14.6 L 63.64 14.6 L 63.64 0 L 64.14 0 L 64.14 14.6 Z" id="5" vector-effect="non-scaling-stroke"/><path d="M 77.28 9.32 L 77.28 14.6 L 76.78 14.6 L 76.78 11.94 L 76.72 11.94 A 3.955 3.955 0 0 1 76.39 12.538 Q 76.154 12.893 75.82 13.26 A 4.908 4.908 0 0 1 74.769 14.124 A 5.996 5.996 0 0 1 74.27 14.4 A 4.386 4.386 0 0 1 72.96 14.801 A 5.725 5.725 0 0 1 72.12 14.86 A 6.16 6.16 0 0 1 70.8 14.725 A 4.537 4.537 0 0 1 69.36 14.15 Q 68.22 13.44 67.63 12.22 A 5.938 5.938 0 0 1 67.077 10.221 A 7.297 7.297 0 0 1 67.04 9.48 A 6.277 6.277 0 0 1 67.237 7.882 A 5.296 5.296 0 0 1 67.67 6.76 Q 68.3 5.56 69.47 4.86 A 4.854 4.854 0 0 1 71.154 4.25 A 6.504 6.504 0 0 1 72.26 4.16 A 5.463 5.463 0 0 1 73.729 4.351 A 4.583 4.583 0 0 1 74.87 4.84 Q 76 5.52 76.64 6.68 Q 77.28 7.84 77.28 9.32 Z M 72.12 14.42 A 4.661 4.661 0 0 0 73.701 14.157 A 4.284 4.284 0 0 0 74.49 13.78 Q 75.54 13.14 76.16 12.01 A 4.897 4.897 0 0 0 76.736 10.081 Q 76.765 9.768 76.76 9.44 Q 76.76 8.04 76.2 6.95 Q 75.64 5.86 74.62 5.23 A 4.2 4.2 0 0 0 72.978 4.651 A 5.438 5.438 0 0 0 72.22 4.6 A 5.481 5.481 0 0 0 71.003 4.729 A 4.127 4.127 0 0 0 69.72 5.25 Q 68.68 5.9 68.12 7.03 A 5.374 5.374 0 0 0 67.609 8.772 A 6.759 6.759 0 0 0 67.56 9.6 A 5.717 5.717 0 0 0 67.811 11.311 A 5.19 5.19 0 0 0 68.09 12.02 Q 68.62 13.12 69.64 13.77 A 4.061 4.061 0 0 0 71.087 14.329 A 5.582 5.582 0 0 0 72.12 14.42 Z" id="6" vector-effect="non-scaling-stroke"/><path d="M 85.38 18.66 L 84.88 18.66 L 84.88 14.86 Q 83.8 14.8 82.84 14.28 A 4.1 4.1 0 0 1 81.285 12.788 A 4.912 4.912 0 0 1 81.28 12.78 A 3.949 3.949 0 0 1 80.787 11.5 Q 80.681 10.983 80.68 10.389 A 6.835 6.835 0 0 1 80.68 10.38 L 80.68 4.4 L 81.2 4.4 L 81.2 10.3 Q 81.2 11.66 81.77 12.58 Q 82.34 13.5 83.24 13.95 Q 84.14 14.4 85.12 14.4 Q 86.14 14.4 87.05 13.94 A 3.748 3.748 0 0 0 88.504 12.626 A 4.442 4.442 0 0 0 88.54 12.57 Q 89.1 11.691 89.119 10.393 A 6.271 6.271 0 0 0 89.12 10.3 L 89.12 4.4 L 89.6 4.4 L 89.6 10.38 Q 89.6 11.82 89 12.8 Q 88.4 13.78 87.43 14.29 Q 86.46 14.8 85.38 14.86 L 85.38 18.66 Z" id="7" vector-effect="non-scaling-stroke"/></g></svg>